<svg version="1.1" xmlns="http://www.w3.org/2000/svg" viewBox="-405.80575290936156 -32.08550325945251 731.2371260097764 68.68123525760524" fill="none" stroke="black" stroke-width="0.6%" vector-effect="non-scaling-stroke">
    <path d="M -400.38348 -22.46762 L -400.38348 13.50124 L -13.39573 35.21716 L -13.39573 -0.7517" />
    <path d="M -400.38348 -22.46762 L -13.39573 -0.7517" />
    <path d="M -400.38348 -22.46762 A 22.5 0.93559 0 0 1 -404.80575 -23.02464 A 22.5 0.93559 0 0 1 -390.78488 -23.89125" />
    <path d="M -404.80575 12.94422 A 22.5 0.93559 180 0 0 -400.38348 13.50124" />
    <path d="M 22.15263 -0.71916 A 22.5 0.93559 0 0 1 -13.39573 -0.7517" />
    <path d="M 22.15263 35.2497 L 22.15263 -0.71916 L 319.402 -16.86489 A 22.5 0.93559 180 0 0 324.43137 -17.45445 A 22.5 0.93559 180 0 0 320.0091 -18.01147 L 93.77011 -30.70693 A 22.5 0.93559 180 0 0 67.21325 -31.01653 L -390.78488 -23.89125" />
    <path d="M -13.39573 35.21716 A 22.5 0.93559 180 0 0 22.15263 35.2497 L 319.402 19.10397 A 22.5 0.93559 180 0 0 324.43137 18.51441" />
    <path d="M -326.5126 -23.52231 A 22.5 0.93559 180 0 0 -341.85883 -22.63527 A 22.5 0.93559 180 0 0 -337.43656 -22.07825 L -4.03172 -3.36915 A 22.5 0.93559 180 0 0 32.37243 -3.38338 L 257.31087 -17.30104 A 22.5 0.93559 180 0 0 261.48445 -17.84383 A 22.5 0.93559 180 0 0 257.06218 -18.40084 L 84.4061 -28.08948 A 22.5 0.93559 180 0 0 59.1746 -28.41951 L -326.5126 -23.52231 Z" />
    <path d="M 319.402 19.10397 L 319.402 -16.86489" />
    <path d="M -326.5126 -21.46525 L -326.5126 -23.52231" />
    <path d="M 59.1746 -5.04172 L 59.1746 -28.41951" />
    <path d="M 84.4061 -6.60287 L 84.4061 -28.08948" />
    <path d="M 257.06218 -17.28565 L 257.06218 -18.40084" />
    <path d="M -404.80575 -23.02464 L -404.80575 12.94422" />
    <path d="M 324.43137 -17.45445 L 324.43137 18.51441" />
</svg>